Coordinates
version=1
nRows=12
nColumns=24
inDegrees=yes

Units are S.I. units (second, meters, Newtons, ...)
Angles are in degrees.

endheader
time	pelvis_tilt	pelvis_list	pelvis_rotation	pelvis_tx	pelvis_ty	pelvis_tz	hip_flexion_r	hip_adduction_r	hip_rotation_r	knee_angle_r	ankle_angle_r	subtalar_angle_r	mtp_angle_r	hip_flexion_l	hip_adduction_l	hip_rotation_l	knee_angle_l	ankle_angle_l	subtalar_angle_l	mtp_angle_l	lumbar_extension	lumbar_bending	lumbar_rotation
      1.00800000	     -2.81597122	     -3.15376056	     -1.89810426	     -0.09224558	      1.01276858	      0.30960285	     -8.45511510	      7.80745113	      2.28202048	     -9.33676453	     15.54550338	     -3.10296936	      2.29893585	     22.07114516	     -2.52317896	     -1.76670088	      4.69688254	      4.63281720	     -3.30318490	      0.23550061	     -4.45991520	      0.91397675	      6.66379298
      1.01216667	     -2.71342268	     -3.00083170	     -1.95002084	     -0.08653742	      1.01211979	      0.30934265	     -8.68458482	      7.62150311	      2.34554733	     -9.80460888	     15.81224732	     -3.14916796	      2.23845605	     22.06658788	     -2.30015415	     -1.74220623	      4.06483071	      4.56960335	     -3.38957153	      0.35250290	     -4.53560856	      0.71017990	      6.66701169
      1.01633333	     -2.62932710	     -2.85776819	     -1.97199382	     -0.08084509	      1.01145503	      0.30902556	     -8.85964102	      7.45147171	      2.33359749	    -10.33136874	     15.98506422	     -3.26086758	      2.21843754	     22.10228755	     -2.07710043	     -1.69270751	      3.36577117	      4.48392467	     -3.48672240	      0.40360510	     -4.60195019	      0.54311405	      6.67780045
      1.02050000	     -2.48956362	     -2.68370061	     -1.99831706	     -0.07510075	      1.01089643	      0.30868412	     -9.04779315	      7.22651491	      2.16372300	    -10.96987082	     16.38034403	     -2.93137748	      2.09433120	     22.07504377	     -1.82198823	     -1.72161601	      2.63771473	      4.31880030	     -3.57873052	      0.75449342	     -4.71352733	      0.30338905	      6.70092922
      1.02466667	     -2.40279503	     -2.52021688	     -1.99317517	     -0.06934643	      1.01027467	      0.30833898	     -9.20339234	      7.04574413	      2.17694101	    -11.54510356	     16.50442298	     -3.10785892	      2.07691294	     22.11848327	     -1.57229421	     -1.67065595	      1.86091782	      4.17425762	     -3.69675494	      0.81384531	     -4.76513156	      0.09961987	      6.70024473
      1.02883333	     -2.28104737	     -2.34227843	     -2.00781948	     -0.06356450	      1.00974584	      0.30799100	     -9.33791064	      6.82763983	      2.04952399	    -12.25244321	     16.79603586	     -2.90591959	      1.94420878	     22.09943177	     -1.31170812	     -1.61767060	      1.11537468	      3.84206266	     -4.00554062	      1.35520500	     -4.84120557	     -0.14180953	      6.67886203
      1.03300000	     -2.17444933	     -2.16391760	     -1.98434366	     -0.05775312	      1.00920262	      0.30763643	     -9.47677049	      6.63862148	      2.05092551	    -12.90706019	     16.87218171	     -3.12370213	      1.92201214	     22.12180986	     -1.04577560	     -1.57877789	      0.29966345	      3.62147255	     -4.14428387	      1.46755111	     -4.88620784	     -0.40827161	      6.67243705
      1.03716667	     -2.06798614	     -1.98714222	     -1.96617317	     -0.05192702	      1.00871159	      0.30726100	     -9.59140524	      6.44810342	      2.05079582	    -13.60807197	     16.89478976	     -3.28163529	      1.45479767	     22.11546435	     -0.77845016	     -1.43594173	     -0.45673494	      3.11357432	     -4.64923409	      4.90775331	     -4.95017580	     -0.63124470	      6.63771179
      1.04133333	     -1.94099789	     -1.81005097	     -1.94492695	     -0.04611528	      1.00828297	      0.30687941	     -9.68117738	      6.25527940	      1.99701295	    -14.40528308	     16.95194522	     -3.41546273	      1.46153183	     22.11208550	     -0.51821355	     -1.42256494	     -1.28455192	      2.81987657	     -4.77364435	      4.92033638	     -5.03528598	     -0.87342468	      6.63157504
      1.04550000	     -1.84757862	     -1.59797708	     -1.92042463	     -0.04025070	      1.00784657	      0.30646420	     -9.70451431	      6.01775375	      1.90013106	    -15.26932910	     17.02119800	     -3.36354569	      1.50002188	     22.11659395	     -0.21555548	     -1.30197264	     -2.06241084	      2.35723833	     -5.15361388	      4.97845279	     -5.09537567	     -1.15859487	      6.59165191
      1.04966667	     -1.74522757	     -1.41527564	     -1.88168213	     -0.03440861	      1.00745479	      0.30600471	     -9.70165369	      5.81299674	      1.76744035	    -16.19607469	     17.00242513	     -3.40754289	      1.58045146	     22.10621132	      0.06421865	     -1.10814629	     -2.83170883	      1.88154322	     -5.66100129	      5.07771279	     -5.14617367	     -1.38604637	      6.54253147
      1.05383333	     -1.61155086	     -1.22014102	     -1.83659743	     -0.02852631	      1.00716699	      0.30555668	     -9.72495214	      5.60178960	      1.66640695	    -17.12981857	     16.86582757	     -3.60104168	      1.60864684	     22.07978044	      0.34692765	     -1.05987933	     -3.65333055	      1.54878981	     -5.85460884	      5.10330232	     -5.21416439	     -1.64824800	      6.52487800
